<svg id="data-analytics" xmlns="http://www.w3.org/2000/svg" xmlns:xlink="http://www.w3.org/1999/xlink" width="112.098" height="112.094" viewBox="0 0 112.098 112.094">
  <defs>
    <linearGradient id="linear-gradient" x1="-0.003" y1="-22.544" x2="1.281" y2="36.302" gradientUnits="objectBoundingBox">
      <stop offset="0.224" stop-color="#589cbc"/>
      <stop offset="0.828" stop-color="#f80a47"/>
    </linearGradient>
    <linearGradient id="linear-gradient-2" x1="0.472" y1="-0.513" x2="0.537" y2="1.844" xlink:href="#linear-gradient"/>
    <linearGradient id="linear-gradient-3" x1="-0.141" y1="-29.552" x2="1.146" y2="30.782" xlink:href="#linear-gradient"/>
    <linearGradient id="linear-gradient-4" x1="0.444" y1="-2.114" x2="0.574" y2="4.115" xlink:href="#linear-gradient"/>
    <linearGradient id="linear-gradient-5" x1="0.195" y1="-25.701" x2="0.898" y2="34.636" xlink:href="#linear-gradient"/>
    <linearGradient id="linear-gradient-6" x1="0.201" y1="-25.183" x2="0.904" y2="35.154" xlink:href="#linear-gradient"/>
  </defs>
  <g id="Grupo_88" data-name="Grupo 88" transform="translate(87.246 42.962)">
    <g id="Grupo_87" data-name="Grupo 87">
      <path id="Caminho_101" data-name="Caminho 101" d="M402.327,196.973l-.115-.113a2.189,2.189,0,1,0-3.061,3.131l.111.109a2.189,2.189,0,1,0,3.065-3.127Z" transform="translate(-398.492 -196.236)" fill="url(#linear-gradient)"/>
    </g>
  </g>
  <g id="Grupo_90" data-name="Grupo 90" transform="translate(11.136)">
    <g id="Grupo_89" data-name="Grupo 89">
      <path id="Caminho_102" data-name="Caminho 102" d="M129.679,81.859a8.054,8.054,0,0,0-3.968,1.037L120.1,77.288a72.962,72.962,0,0,0,7.326-5.675,88.37,88.37,0,0,0,9.394-9.652c3.865-4.641,3.865-5.342,3.865-5.905,0-.759-.248-1.165-1.4-2.722-.57-.768-1.53-2.015-2.869-3.594a2.189,2.189,0,0,0-3.34,2.832c1.249,1.473,2.2,2.7,2.8,3.51A79.707,79.707,0,0,1,123.81,68.957c-6.575,5.634-16.776,12.35-28.035,12.35-19.986,0-36.527-20.519-40.086-25.292a79.754,79.754,0,0,1,12.051-12.86C74.315,37.521,84.516,30.8,95.775,30.8c8.236,0,16.866,3.514,25.649,10.446a2.189,2.189,0,1,0,2.713-3.437q-2.026-1.6-4.05-2.973l5.625-5.625a8.1,8.1,0,1,0-3.1-3.1l-6.33,6.33A42.1,42.1,0,0,0,97.961,26.5V15.908a8.1,8.1,0,1,0-4.379,0V26.5a42.889,42.889,0,0,0-18.322,5.944l-6.327-6.327a8.1,8.1,0,1,0-3.1,3.1l5.608,5.608A72.993,72.993,0,0,0,64.119,40.5a88.369,88.369,0,0,0-9.394,9.652c-3.865,4.641-3.865,5.342-3.865,5.905,0,.779.311,1.238,1.294,2.575.508.69,1.366,1.815,2.573,3.261a90.248,90.248,0,0,0,9.389,9.656,73.31,73.31,0,0,0,7.355,5.715L65.837,82.9a8.1,8.1,0,1,0,3.1,3.1l6.348-6.348A42.764,42.764,0,0,0,93.588,85.61V96.2a8.1,8.1,0,1,0,4.379,0V85.61a42.889,42.889,0,0,0,18.322-5.944l6.326,6.326a8.1,8.1,0,1,0,7.064-4.133Zm-2.632-62.34a3.722,3.722,0,1,1,0,5.264h0a3.722,3.722,0,0,1,0-5.263Zm-35-11.41a3.722,3.722,0,1,1,3.722,3.722A3.726,3.726,0,0,1,92.049,8.11ZM64.5,24.783h0a3.722,3.722,0,1,1,1.091-2.632A3.7,3.7,0,0,1,64.5,24.784Zm0,67.809a3.722,3.722,0,1,1,0-5.264h0a3.722,3.722,0,0,1,0,5.263ZM99.5,104a3.722,3.722,0,1,1-3.722-3.722A3.726,3.726,0,0,1,99.5,104Zm32.811-11.41a3.722,3.722,0,0,1-5.264-5.263h0a3.722,3.722,0,0,1,5.263,5.264Z" transform="translate(-50.861 -0.009)" fill="url(#linear-gradient-2)"/>
    </g>
  </g>
  <g id="Grupo_92" data-name="Grupo 92" transform="translate(53.882 71.897)">
    <g id="Grupo_91" data-name="Grupo 91">
      <path id="Caminho_103" data-name="Caminho 103" d="M248.4,328.4h-.106a2.189,2.189,0,1,0,0,4.379h.112a2.189,2.189,0,0,0-.007-4.379Z" transform="translate(-246.101 -328.396)" fill="url(#linear-gradient-3)"/>
    </g>
  </g>
  <g id="Grupo_94" data-name="Grupo 94" transform="translate(35.819 32.09)">
    <g id="Grupo_93" data-name="Grupo 93">
      <path id="Caminho_104" data-name="Caminho 104" d="M183.854,146.579a2.189,2.189,0,0,0-2.189,2.189v1.612a20.254,20.254,0,0,0-6.61,38.378,2.189,2.189,0,1,0,1.9-3.943,15.974,15.974,0,0,1-8.978-14.3,15.788,15.788,0,0,1,3.215-9.562l11.11,11.11h0a2.183,2.183,0,0,0,1.548.641h15.719a15.984,15.984,0,0,1-8.858,12.129,2.189,2.189,0,1,0,1.895,3.947A20.387,20.387,0,0,0,203.984,172.7H205.6a2.189,2.189,0,0,0,2.189-2.189A23.962,23.962,0,0,0,183.854,146.579Zm-2.189,18.649-7.372-7.372a15.791,15.791,0,0,1,7.372-3.065Zm4.379,3.1V151.08a19.592,19.592,0,0,1,17.245,17.245Z" transform="translate(-163.602 -146.579)" fill="url(#linear-gradient-4)"/>
    </g>
  </g>
  <g id="Grupo_96" data-name="Grupo 96" transform="translate(103.887 53.885)">
    <g id="Grupo_95" data-name="Grupo 95">
      <path id="Caminho_105" data-name="Caminho 105" d="M480.521,246.127h-3.831a2.189,2.189,0,0,0,0,4.379h3.831a2.189,2.189,0,1,0,0-4.379Z" transform="translate(-474.5 -246.127)" fill="url(#linear-gradient-5)"/>
    </g>
  </g>
  <g id="Grupo_98" data-name="Grupo 98" transform="translate(0 53.885)">
    <g id="Grupo_97" data-name="Grupo 97">
      <path id="Caminho_106" data-name="Caminho 106" d="M6.021,246.127H2.189a2.189,2.189,0,0,0,0,4.379H6.021a2.189,2.189,0,0,0,0-4.379Z" transform="translate(0 -246.127)" fill="url(#linear-gradient-6)"/>
    </g>
  </g>
</svg>
