<svg xmlns="http://www.w3.org/2000/svg" xmlns:xlink="http://www.w3.org/1999/xlink" width="96.602" height="96.602" viewBox="0 0 96.602 96.602">
  <defs>
    <linearGradient id="linear-gradient" x1="0.478" y1="-0.533" x2="0.531" y2="1.9" gradientUnits="objectBoundingBox">
      <stop offset="0.224" stop-color="#589cbc"/>
      <stop offset="0.828" stop-color="#f80a47"/>
    </linearGradient>
  </defs>
  <path id="fabrica-software" d="M-595.444,71.858h3.116v3.116h-3.116Zm6.232,3.116h3.116V71.858h-3.116Zm6.232,0h3.116V71.858h-3.116Zm-52.975-3.116h-3.116v3.116h3.116Zm6.232,0h-3.116v3.116h3.116Zm73.231,3.116a1.559,1.559,0,0,0,1.558-1.558,1.559,1.559,0,0,0-1.558-1.558,1.559,1.559,0,0,0-1.558,1.558A1.559,1.559,0,0,0-556.491,74.975Zm-77.9-40.511a1.559,1.559,0,0,0-1.558,1.558A1.559,1.559,0,0,0-634.4,37.58a1.559,1.559,0,0,0,1.558-1.558A1.559,1.559,0,0,0-634.4,34.464Zm85.7-15.581V53.161a3.119,3.119,0,0,1-3.116,3.116h-56.092a3.119,3.119,0,0,1-3.116-3.116V37.58h-15.738a7.815,7.815,0,0,1-6.075,6.075V65.626h6.232a3.119,3.119,0,0,1,3.116,3.116v3.116h6.519a4.668,4.668,0,0,1,4.388-3.116,4.668,4.668,0,0,1,4.388,3.116h6.519V68.742a3.119,3.119,0,0,1,3.116-3.116h21.813a3.119,3.119,0,0,1,3.116,3.116v3.116h9.506a7.8,7.8,0,0,1,7.633-6.232,7.8,7.8,0,0,1,7.79,7.79,7.805,7.805,0,0,1-6.232,7.633V99.9a3.119,3.119,0,0,1-3.116,3.116h-6.578a4.033,4.033,0,0,1-1.909,2.091l-14.517,7.258h-56.459a7.8,7.8,0,0,1-7.79-7.79V98.346a7.8,7.8,0,0,1,7.79-7.79h56.459l14.515,7.258a4.026,4.026,0,0,1,1.909,2.091h6.58V81.05a7.815,7.815,0,0,1-6.075-6.075h-9.506v3.116a3.119,3.119,0,0,1-3.116,3.116H-598.56a3.119,3.119,0,0,1-3.116-3.116V74.975H-608.2a4.668,4.668,0,0,1-4.388,3.116,4.668,4.668,0,0,1-4.388-3.116h-6.519v3.116a3.119,3.119,0,0,1-3.116,3.116h-15.581a3.119,3.119,0,0,1-3.116-3.116V68.742a3.119,3.119,0,0,1,3.116-3.116h6.232V43.655a7.805,7.805,0,0,1-6.232-7.633,7.8,7.8,0,0,1,7.79-7.79,7.805,7.805,0,0,1,7.633,6.232h15.738V18.883a3.119,3.119,0,0,1,3.116-3.116h56.092a3.119,3.119,0,0,1,3.116,3.116Zm-34.278,74.789H-623.49V99.9h40.511Zm-43.627,0h-3.116v15.581h3.116Zm3.116,15.581h40.511V103.02H-623.49Zm43.627-.963,6.232-3.116V97.751l-6.232-3.116Zm-57.65.963h4.674V93.672h-4.674a4.68,4.68,0,0,0-4.674,4.674v6.232A4.68,4.68,0,0,0-637.513,109.253Zm70.114-7.79a.959.959,0,0,0-.533-.862l-2.583-1.292v4.307l2.583-1.292A.958.958,0,0,0-567.4,101.462Zm6.232-28.046a4.68,4.68,0,0,0,4.674,4.674,4.68,4.68,0,0,0,4.674-4.674,4.68,4.68,0,0,0-4.674-4.674A4.68,4.68,0,0,0-561.166,73.417Zm-37.394,4.674h21.815l0-9.349H-598.56Zm-15.581-4.674a1.56,1.56,0,0,0,1.558,1.558,1.56,1.56,0,0,0,1.558-1.558,1.56,1.56,0,0,0-1.558-1.558A1.56,1.56,0,0,0-614.141,73.417Zm-12.465-4.674h-15.581v9.349H-626.6Zm-3.116-32.72a4.68,4.68,0,0,0-4.674-4.674,4.68,4.68,0,0,0-4.674,4.674A4.68,4.68,0,0,0-634.4,40.7,4.68,4.68,0,0,0-629.722,36.022Zm37.394,4.674h-6.232V53.161h6.232Zm15.581-6.232h-6.232v18.7h6.232Zm15.581-6.232H-567.4v24.93h6.232Zm9.35,24.93,0-34.278h-56.092V53.161h6.232V40.7a3.119,3.119,0,0,1,3.116-3.116h6.232a3.119,3.119,0,0,1,3.116,3.116V53.161h3.116v-18.7a3.119,3.119,0,0,1,3.116-3.116h6.232a3.119,3.119,0,0,1,3.116,3.116v18.7h3.116V28.232a3.119,3.119,0,0,1,3.116-3.116h6.232a3.119,3.119,0,0,1,3.116,3.116v24.93Z" transform="translate(645.303 -15.767)" fill="url(#linear-gradient)"/>
</svg>
