<svg xmlns="http://www.w3.org/2000/svg" width="29.466" height="29.466" viewBox="0 0 29.466 29.466">
  <g id="facebook-branco" transform="translate(0)">
    <path id="Caminho_34" data-name="Caminho 34" d="M299.57,797.814A14.733,14.733,0,1,1,314.3,783.081,14.75,14.75,0,0,1,299.57,797.814Zm0-28.222a13.489,13.489,0,1,0,13.49,13.49A13.505,13.505,0,0,0,299.57,769.592Z" transform="translate(-284.837 -768.348)" fill="#fff"/>
    <path id="Caminho_35" data-name="Caminho 35" d="M300.487,784.937v8.643a.225.225,0,0,0,.225.225h3.21a.225.225,0,0,0,.225-.225V784.8h2.327a.225.225,0,0,0,.224-.206l.224-2.647a.225.225,0,0,0-.224-.244h-2.551v-1.878a.8.8,0,0,1,.8-.8h1.793a.225.225,0,0,0,.225-.225v-2.647a.225.225,0,0,0-.225-.226h-3.03a3.22,3.22,0,0,0-3.219,3.22V781.7h-1.605a.225.225,0,0,0-.225.225v2.647a.225.225,0,0,0,.225.226h1.605Z" transform="translate(-288.092 -770.133)" fill="#fff" fill-rule="evenodd"/>
  </g>
</svg>
