<svg xmlns="http://www.w3.org/2000/svg" width="738.571" height="427.035" viewBox="0 0 738.571 427.035">
  <g id="ilust-news" transform="translate(-599 -3450.652)">
    <g id="Grupo_114" data-name="Grupo 114" transform="translate(1285.783 4167.395)">
      <path id="Caminho_107" data-name="Caminho 107" d="M-323.2-323.965q-.535-1.679-1.047-3.367l2.517-.763q.5,1.67,1.035,3.329Z" transform="translate(-44.764 -44.263)" fill="#fff"/>
      <path id="Caminho_108" data-name="Caminho 108" d="M-327.1-337.468q-.447-1.7-.87-3.417l2.553-.629q.418,1.695.86,3.379Z" transform="translate(-44.304 -42.606)" fill="#fff"/>
      <path id="Caminho_109" data-name="Caminho 109" d="M-330.286-351.157q-.358-1.724-.689-3.457l2.582-.5q.329,1.713.681,3.419Z" transform="translate(-43.932 -40.927)" fill="#fff"/>
      <path id="Caminho_110" data-name="Caminho 110" d="M-332.751-364.993q-.266-1.739-.507-3.488l2.605-.359q.238,1.729.5,3.45Z" transform="translate(-43.65 -39.232)" fill="#fff"/>
      <path id="Caminho_111" data-name="Caminho 111" d="M-334.489-378.939q-.175-1.751-.325-3.51l2.621-.224q.147,1.739.321,3.472Z" transform="translate(-43.458 -37.524)" fill="#fff"/>
      <path id="Caminho_112" data-name="Caminho 112" d="M-335.5-392.955q-.084-1.758-.143-3.523l2.629-.087q.058,1.745.141,3.483Z" transform="translate(-43.356 -35.809)" fill="#fff"/>
      <g id="Grupo_100" data-name="Grupo 100" transform="translate(-547.831 -595.388)">
        <path id="Caminho_113" data-name="Caminho 113" d="M-484.011-295.526l159.065-17.8a.669.669,0,0,0,.593-.614L-308.1-524.48a53.906,53.906,0,0,0-59.74-57.72l-112.844,12.626a53.508,53.508,0,0,0-46.5,63.789l42.44,209.725A.67.67,0,0,0-484.011-295.526Z" transform="translate(528.257 582.542)" fill="#e61849"/>
      </g>
      <g id="Grupo_101" data-name="Grupo 101" transform="translate(-499.705 -678.562)">
        <path id="Caminho_114" data-name="Caminho 114" d="M-433.186-568.534a17.059,17.059,0,0,1-16.935-14.991l5.561-28.449-13.705,1.533a6.733,6.733,0,0,1-.758.043,6.716,6.716,0,0,1-6.675-5.98l-6-53.592,51.892-5.806,6.313,56.422,12.663,30.3a16.975,16.975,0,0,1-3.65,12.379,16.976,16.976,0,0,1-11.45,6.316l-15.337,1.716a17.251,17.251,0,0,1-1.922.108Z" transform="translate(473.147 677.228)" fill="#fff"/>
        <path id="Caminho_115" data-name="Caminho 115" d="M-421.168-674.528l6.145,54.929.042.374.145.347,12.513,29.943a15.79,15.79,0,0,1-13.956,17.067l-15.337,1.716a16.091,16.091,0,0,1-1.776.1,15.743,15.743,0,0,1-15.6-13.634l5.176-26.483.687-3.516-3.56.4-11.925,1.334a5.493,5.493,0,0,1-.611.034,5.4,5.4,0,0,1-5.369-4.811l-5.85-52.285,49.278-5.514Zm2.32-2.9-54.5,6.1,6.143,54.9a8.043,8.043,0,0,0,7.981,7.148,8.093,8.093,0,0,0,.9-.051l11.925-1.334-5.257,26.894a18.4,18.4,0,0,0,18.264,16.356,18.546,18.546,0,0,0,2.069-.116l15.338-1.716a18.4,18.4,0,0,0,16.24-20.333l-12.664-30.3-6.439-57.541Z" transform="translate(473.352 677.433)" fill="#e61849"/>
      </g>
      <g id="Grupo_102" data-name="Grupo 102" transform="translate(-663.967 -556.082)">
        <path id="Caminho_116" data-name="Caminho 116" d="M-555.854-382.011l-96.647-41.3-8.252-18.168,92.781,17.518L-537.246-537.7l46.555,28.321L-536.1-390.39A14.882,14.882,0,0,1-555.854-382.011Z" transform="translate(660.753 537.699)" fill="#e61849"/>
      </g>
      <g id="Grupo_103" data-name="Grupo 103" transform="translate(-477.109 -559.289)">
        <path id="Caminho_117" data-name="Caminho 117" d="M-442.848-331.01l143.132-9.891a35.178,35.178,0,0,0,29.84-41.443l-29.292-152.712-52.222-6.3,28.38,153.3a4.138,4.138,0,0,1-2.7,4.865L-447.573-350.4Z" transform="translate(447.573 541.358)" fill="#e61849"/>
      </g>
      <g id="Grupo_105" data-name="Grupo 105" transform="translate(-686.783 -511.049)">
        <path id="Caminho_118" data-name="Caminho 118" d="M-647.234-450.747l21.654-31.075-1.382-2.82a3.714,3.714,0,0,0-5.142-1.074l-52.581,34.421a3.714,3.714,0,0,0-1.073,5.142l1.382,2.821Z" transform="translate(686.732 486.323)" fill="#e61849"/>
        <g id="Grupo_104" data-name="Grupo 104" transform="translate(0 2.17)">
          <path id="Caminho_119" data-name="Caminho 119" d="M-661.443-410.462a5.018,5.018,0,0,1-4.212-2.275l-18.658-28.5,38.531-7.693,22.465-32.237,18.658,28.5a4.991,4.991,0,0,1,.715,3.782,5,5,0,0,1-2.169,3.18l-52.58,34.421a5.012,5.012,0,0,1-2.751.821Z" transform="translate(686.478 483.516)" fill="#e61849"/>
          <path id="Caminho_120" data-name="Caminho 120" d="M-623.655-479.151l17.593,26.874a3.715,3.715,0,0,1-1.074,5.142l-52.581,34.421a3.7,3.7,0,0,1-2.03.607,3.712,3.712,0,0,1-3.112-1.68l-17.592-26.873,37.142-7.415,21.654-31.076Zm.068-4.7-2.226,3.193-21.048,30.207-36.1,7.208-3.817.763,2.132,3.257,17.593,26.872a6.327,6.327,0,0,0,5.311,2.87,6.329,6.329,0,0,0,3.471-1.036l52.58-34.421a6.352,6.352,0,0,0,1.834-8.782l-17.594-26.873-2.132-3.256Z" transform="translate(686.783 483.847)" fill="#fff"/>
        </g>
      </g>
      <g id="Grupo_106" data-name="Grupo 106" transform="translate(-680.7 -464.011)">
        <path id="Caminho_121" data-name="Caminho 121" d="M-668.291-409.513a4.386,4.386,0,0,1-3.262-1.457l-5.62-7.1a4.405,4.405,0,0,1,.288-6.244l.752-.674a4.361,4.361,0,0,1,1.236-.78l12.767-5.326-1.822,18.061a4.6,4.6,0,0,1-1.417,2.4A4.369,4.369,0,0,1-668.291-409.513Z" transform="translate(679.657 432.465)" fill="#fff"/>
        <path id="Caminho_122" data-name="Caminho 122" d="M-663.847-429.22l-1.593,15.785a3.329,3.329,0,0,1-.994,1.631,3.061,3.061,0,0,1-2.043.782,3.027,3.027,0,0,1-2.238-.969l-5.614-7.085-.049-.062-.053-.06a3.068,3.068,0,0,1,.237-4.327l.751-.672a3.049,3.049,0,0,1,.865-.547l10.731-4.476Zm1.655-3.439a1.214,1.214,0,0,0-.471.1l-12.927,5.392a5.717,5.717,0,0,0-1.608,1.015l-.751.673a5.693,5.693,0,0,0-.44,8.039l5.671,7.157a5.676,5.676,0,0,0,4.242,1.894,5.671,5.671,0,0,0,3.8-1.453,5.916,5.916,0,0,0,1.842-3.177L-661-431.2a1.217,1.217,0,0,0-1.189-1.454Z" transform="translate(679.843 432.659)" fill="#e61849"/>
      </g>
      <g id="Grupo_108" data-name="Grupo 108" transform="translate(-583.821 -395.944)">
        <g id="Grupo_107" data-name="Grupo 107">
          <path id="Caminho_123" data-name="Caminho 123" d="M-566.14-324.513l-1.584-6.613a3.3,3.3,0,0,1,.4-2.511,3.3,3.3,0,0,1,2.058-1.494l76.311-18.282a3.354,3.354,0,0,1,.778-.092,3.31,3.31,0,0,1,3.227,2.549l1.584,6.612-37.4,26.569Z" transform="translate(569.132 354.819)" fill="#e61849"/>
          <path id="Caminho_124" data-name="Caminho 124" d="M-488.363-352.374a2,2,0,0,1,1.948,1.541l1.377,5.748-36.242,25.748-43.974-6.531-1.378-5.748a2.01,2.01,0,0,1,1.485-2.42l76.311-18.282a2.01,2.01,0,0,1,.472-.056Zm0-2.63a4.615,4.615,0,0,0-1.084.129l-76.311,18.281a4.637,4.637,0,0,0-3.43,5.591l1.791,7.476,46.779,6.947,38.552-27.39-1.791-7.475A4.64,4.64,0,0,0-488.363-355Z" transform="translate(569.317 355.004)" fill="#fff"/>
        </g>
        <path id="Caminho_125" data-name="Caminho 125" d="M-520.357-315.007l-46.778-6.947,9.344,39a4.637,4.637,0,0,0,5.59,3.429l76.311-18.281a4.637,4.637,0,0,0,3.429-5.591l-9.344-39Z" transform="translate(569.047 353.447)" fill="#589cbc"/>
      </g>
      <g id="Grupo_110" data-name="Grupo 110" transform="translate(-516.984 -368.877)">
        <g id="Grupo_109" data-name="Grupo 109">
          <path id="Caminho_126" data-name="Caminho 126" d="M-453.19-323.574l-14.576-.537a18.353,18.353,0,0,0-13.685,5.4l-11.309,11.363a1.033,1.033,0,0,0,.965,1.736l18.871-4.365a5.361,5.361,0,0,1,5.314,1.774,13.616,13.616,0,0,0,11.838,4.784l7.308-.763Z" transform="translate(493.065 324.124)" fill="#fff"/>
        </g>
      </g>
      <g id="Grupo_111" data-name="Grupo 111" transform="translate(-508.316 -686.58)">
        <path id="Caminho_127" data-name="Caminho 127" d="M-483.176-686.58l49.25,1.078c10.371.259,16.143,5.163,17.093,13.653l2.179,19.479a8.877,8.877,0,0,1-7.835,9.809l-9,1.006-2.216-19.806a8.548,8.548,0,0,0-9.445-7.544l-30.507,3.413Z" transform="translate(483.176 686.58)" fill="#e61849"/>
      </g>
      <g id="Grupo_113" data-name="Grupo 113" transform="translate(-460.626 -658.233)">
        <g id="Grupo_112" data-name="Grupo 112">
          <path id="Caminho_128" data-name="Caminho 128" d="M-428.736-648.526a5.142,5.142,0,0,0,5.682,4.538,5.142,5.142,0,0,0,4.538-5.682,5.142,5.142,0,0,0-5.682-4.538A5.142,5.142,0,0,0-428.736-648.526Z" transform="translate(428.768 654.24)" fill="#fff"/>
        </g>
      </g>
    </g>
    <g id="Grupo_121" data-name="Grupo 121" transform="matrix(0.485, 0.875, -0.875, 0.485, 1169.577, 3450.652)">
      <path id="Caminho_134" data-name="Caminho 134" d="M1.967,207.456H0q0-1.548.019-3.091l1.967.034Q1.966,205.926,1.967,207.456Zm.233-10.7-1.964-.118Q.3,195.1.391,193.556l1.963.153Q2.267,195.231,2.2,196.76Zm.7-10.667-1.957-.237q.136-1.541.291-3.073l1.953.271Q3.038,184.572,2.9,186.094Zm1.175-10.609-1.943-.357q.2-1.529.428-3.051l1.938.391Q4.281,173.972,4.079,175.485Zm1.646-10.523L3.8,164.486q.272-1.514.563-3.021l1.919.509Q5.994,163.464,5.725,164.962Zm2.114-10.408-1.9-.594q.339-1.495.7-2.981l1.893.626Q8.175,153.075,7.839,154.554Zm2.578-10.263-1.872-.71q.408-1.478.834-2.946l1.862.742Q10.821,142.83,10.418,144.291Zm3.044-10.122-1.837-.824q.473-1.449.965-2.889l1.826.857Q13.929,132.736,13.462,134.169Zm3.493-9.914-1.8-.936q.538-1.417,1.092-2.824l1.785.969Q17.486,122.852,16.955,124.255Zm3.931-9.681-1.753-1.046q.6-1.381,1.216-2.751l1.74,1.077Q21.478,113.207,20.886,114.574Zm4.357-9.423L23.538,104q.66-1.342,1.336-2.672l1.69,1.182Q25.9,103.823,25.243,105.151Zm4.769-9.139-1.651-1.255q.719-1.3,1.453-2.585l1.635,1.283Q30.721,94.727,30.012,96.012Zm5.167-8.832-1.593-1.354q.775-1.253,1.565-2.492l1.576,1.381Q35.945,85.94,35.178,87.179Zm5.55-8.5L39.2,77.227q.829-1.2,1.673-2.392l1.512,1.475Q41.548,77.487,40.729,78.677Zm5.918-8.151-1.465-1.54q.88-1.151,1.776-2.286L48.4,68.264Q47.517,69.387,46.646,70.525Zm6.268-7.778-1.395-1.627q.93-1.1,1.874-2.175L54.766,60.6Q53.834,61.664,52.914,62.748Zm6.6-7.384L58.2,53.654q.977-1.037,1.966-2.057l1.3,1.733Q60.481,54.337,59.516,55.363Zm6.916-6.971L65.189,46.6q1.02-.974,2.053-1.934l1.221,1.808Q67.441,47.428,66.431,48.392Zm7.213-6.539-1.163-1.86q1.062-.912,2.136-1.806l1.138,1.88Q74.693,40.951,73.644,41.853Zm7.489-6.089-1.079-1.929q1.1-.845,2.212-1.673l1.054,1.948Q82.221,34.928,81.134,35.764Zm7.746-5.622-.991-1.992q1.135-.777,2.282-1.534l.966,2.009Q90,29.374,88.88,30.142ZM96.862,25l-.9-2.049q1.167-.706,2.345-1.392l.875,2.066Q98.016,24.3,96.862,25Zm8.2-4.64-.809-2.1q1.2-.633,2.4-1.245l.782,2.116Q106.24,19.737,105.057,20.363Zm8.386-4.131-.714-2.149q1.228-.56,2.464-1.1l.687,2.161Q114.657,15.677,113.443,16.232ZM232.282,12.78q-1.236-.483-2.481-.945l.593-2.2q1.259.467,2.51.956ZM122.03,12.611l-.616-2.19q1.251-.484,2.51-.947l.589,2.2Q123.267,12.132,122.03,12.611ZM223.549,9.664q-1.256-.406-2.52-.791l.494-2.232q1.278.389,2.549.8Zm-92.782-.14L130.249,7.3q1.271-.406,2.549-.791l.49,2.233Q132.023,9.123,130.767,9.525Zm83.922-2.432q-1.273-.327-2.553-.634l.393-2.259q1.294.309,2.581.642ZM139.63,6.98l-.418-2.253q1.287-.327,2.581-.633l.389,2.261Q140.9,6.656,139.63,6.98Zm66.094-1.911q-1.285-.25-2.578-.477l.292-2.281q1.307.229,2.607.482Zm-57.13-.084-.316-2.276q1.3-.248,2.606-.474l.287,2.282Q149.88,4.74,148.594,4.985ZM196.68,3.6q-1.3-.171-2.6-.319l.191-2.3q1.315.15,2.624.322Zm-39.046-.057-.214-2.293q1.308-.167,2.623-.314l.186,2.3Q158.929,3.375,157.635,3.541Zm29.949-.861q-1.3-.091-2.607-.161l.089-2.3q1.32.07,2.635.163Zm-20.855-.03-.113-2.3q1.314-.09,2.633-.155l.085,2.3Q168.029,2.562,166.729,2.65Zm11.73-.336c-.87-.009-1.742-.011-2.612,0L175.835,0q1.319-.01,2.639,0Z" transform="translate(0)" fill="#e61849"/>
    </g>
    <g id="Grupo_119" data-name="Grupo 119" transform="translate(1024.061 3618.093)">
      <g id="Grupo_117" data-name="Grupo 117" transform="translate(0)">
        <path id="Caminho_132" data-name="Caminho 132" d="M14.04-462.669l142.918-57.517,0-25.041a15.107,15.107,0,0,0-15.108-15.106l-255.624.011a15.108,15.108,0,0,0-15.106,15.108l0,25.041Z" transform="translate(128.881 560.333)" fill="#589cbc"/>
        <path id="Caminho_133" data-name="Caminho 133" d="M14.042-417.49l-142.92-57.5.008,130.644a15.108,15.108,0,0,0,15.107,15.106l255.624-.011a15.107,15.107,0,0,0,15.106-15.108l-.008-130.644Z" transform="translate(128.881 549.774)" fill="#589cbc"/>
      </g>
      <g id="Grupo_118" data-name="Grupo 118" transform="translate(22.227 169.43)">
        <rect id="Retângulo_299" data-name="Retângulo 299" width="103.042" height="6.615" fill="#fff"/>
        <rect id="Retângulo_300" data-name="Retângulo 300" width="36.133" height="6.615" transform="translate(0 17.481)" fill="#fff"/>
        <rect id="Retângulo_301" data-name="Retângulo 301" width="57.209" height="6.615" transform="translate(45.832 17.481)" fill="#fff"/>
      </g>
    </g>
    <g id="Grupo_120" data-name="Grupo 120" transform="translate(1219.4 3759.517)">
      <circle id="Elipse_18" data-name="Elipse 18" cx="59.085" cy="59.085" r="59.085" fill="#e61849"/>
    </g>
    <path id="Caminho_135" data-name="Caminho 135" d="M125.486-338.39l26.544,26.544,44.54-44.54" transform="translate(1121.463 4153.186)" fill="none" stroke="#fff" stroke-miterlimit="10" stroke-width="13"/>
    <g id="Grupo_123" data-name="Grupo 123" transform="matrix(-0.391, 0.921, -0.921, -0.391, 1068.712, 3527.474)">
      <path id="Caminho_129" data-name="Caminho 129" d="M45.43-654.358,62.7-699.7l56.333,96.49Z" transform="translate(-43.836 702.733)" fill="#fff"/>
      <path id="Caminho_130" data-name="Caminho 130" d="M62.726-697.091l51.95,88.982L46.8-655.279l15.928-41.813Zm-.5-6.071L43.611-654.294l79.332,55.131-60.717-104Z" transform="translate(-43.611 703.162)" fill="#e61849"/>
    </g>
    <path id="Caminho_136" data-name="Caminho 136" d="M117.391-592.262l-79.332-55.13L-1.252-612.9Z" transform="matrix(-0.391, 0.921, -0.921, -0.391, 442.672, 3220.39)" fill="#e61849"/>
  </g>
</svg>
