<svg xmlns="http://www.w3.org/2000/svg" width="29.631" height="29.631" viewBox="0 0 29.631 29.631">
  <path id="instagram-branco" d="M300.1,843.389a14.815,14.815,0,1,1,14.815-14.815A14.832,14.832,0,0,1,300.1,843.389Zm0-28.223A13.408,13.408,0,1,0,313.5,828.573,13.423,13.423,0,0,0,300.1,815.165Zm5,7.4a1.1,1.1,0,1,0,1.1,1.1A1.1,1.1,0,0,0,305.092,822.562Zm-4.874,1.406a4.605,4.605,0,1,0,4.605,4.605A4.611,4.611,0,0,0,300.218,823.968Zm0,7.555a2.95,2.95,0,1,1,2.95-2.95A2.953,2.953,0,0,1,300.218,831.523Zm9.292-6.777a5.617,5.617,0,0,0-5.617-5.617H296.48a5.617,5.617,0,0,0-5.617,5.617v7.414a5.617,5.617,0,0,0,5.617,5.617h7.413a5.617,5.617,0,0,0,5.617-5.617Zm-1.759,7.414a3.857,3.857,0,0,1-3.858,3.857H296.48a3.857,3.857,0,0,1-3.857-3.857v-7.414a3.857,3.857,0,0,1,3.857-3.857h7.413a3.857,3.857,0,0,1,3.858,3.857Z" transform="translate(-285.281 -813.758)" fill="#fff"/>
</svg>
