<svg xmlns="http://www.w3.org/2000/svg" width="29.63" height="29.631" viewBox="0 0 29.63 29.631">
  <g id="linkedin-branco" transform="translate(-10.832 -294.564)">
    <path id="Caminho_37" data-name="Caminho 37" d="M300.74,889.366a14.815,14.815,0,1,1,14.815-14.815A14.832,14.832,0,0,1,300.74,889.366Zm0-28.223a13.408,13.408,0,1,0,13.408,13.408A13.422,13.422,0,0,0,300.74,861.142Z" transform="translate(-275.093 -565.171)" fill="#fff"/>
    <path id="Caminho_38" data-name="Caminho 38" d="M303.386,885.288c0,.655.021.662.692.674.559.011,1.118,0,1.678,0,.962,0,.966,0,.967-.963,0-1.8.007-3.6,0-5.406a2.228,2.228,0,0,1,.867-1.863,1.984,1.984,0,0,1,3.154.976,7.536,7.536,0,0,1,.269,1.823c.037,1.584.006,3.169.016,4.753,0,.657.021.666.691.678.622.011,1.243.008,1.865,0,.773-.008.787-.013.787-.767a60.107,60.107,0,0,0-.193-7.339,3.218,3.218,0,0,0-1.638-2.753,5.255,5.255,0,0,0-3.347-.441,3.576,3.576,0,0,0-1.875.731c-.22.2-.47.367-.706.549a6.965,6.965,0,0,1-.068-.823c.012-.411-.177-.546-.563-.537-.621.015-1.243,0-1.865.005-.716.01-.728.016-.732.726-.008,1.647,0,3.293,0,4.94C303.383,881.932,303.376,883.61,303.386,885.288Z" transform="translate(-279.205 -568.664)" fill="#fff"/>
    <path id="Caminho_39" data-name="Caminho 39" d="M297,870.94a1.82,1.82,0,0,0,2-1.94,1.845,1.845,0,0,0-1.878-1.972,2.051,2.051,0,0,0-1.994,1.952A1.973,1.973,0,0,0,297,870.94Z" transform="translate(-277.259 -566.888)" fill="#fff"/>
    <path id="Caminho_40" data-name="Caminho 40" d="M295.08,885.218c0,.731.015.741.711.749.839.01,1.679.011,2.518,0,.656-.01.671-.021.675-.694.009-1.647,0-3.295,0-4.942,0-1.709.007-3.419,0-5.128,0-.569-.032-.6-.573-.606-.9-.016-1.8-.014-2.7,0-.6.009-.612.024-.626.646-.012.59,0,1.181,0,1.771Q295.077,881.115,295.08,885.218Z" transform="translate(-277.248 -568.668)" fill="#fff"/>
  </g>
</svg>
