<svg id="modelo-negocio" xmlns="http://www.w3.org/2000/svg" xmlns:xlink="http://www.w3.org/1999/xlink" width="112.098" height="112.098" viewBox="0 0 112.098 112.098">
  <defs>
    <linearGradient id="linear-gradient" x1="-0.315" y1="-5.719" x2="1.332" y2="6.851" gradientUnits="objectBoundingBox">
      <stop offset="0.224" stop-color="#589cbc"/>
      <stop offset="0.828" stop-color="#f80a47"/>
    </linearGradient>
    <linearGradient id="linear-gradient-2" x1="-0.325" y1="-7.054" x2="1.322" y2="8.03" xlink:href="#linear-gradient"/>
    <linearGradient id="linear-gradient-3" x1="-0.335" y1="-9.057" x2="1.312" y2="9.799" xlink:href="#linear-gradient"/>
    <linearGradient id="linear-gradient-4" x1="-0.345" y1="-12.394" x2="1.302" y2="12.746" xlink:href="#linear-gradient"/>
    <linearGradient id="linear-gradient-5" x1="-0.355" y1="-19.07" x2="1.292" y2="18.641" xlink:href="#linear-gradient"/>
    <linearGradient id="linear-gradient-6" x1="0.43" y1="-5.123" x2="0.579" y2="6.852" xlink:href="#linear-gradient"/>
    <linearGradient id="linear-gradient-7" x1="0.293" y1="-32.626" x2="0.764" y2="42.796" xlink:href="#linear-gradient"/>
    <linearGradient id="linear-gradient-8" x1="0.122" y1="-34.109" x2="0.946" y2="41.313" xlink:href="#linear-gradient"/>
    <linearGradient id="linear-gradient-9" x1="-0.365" y1="-39.095" x2="1.282" y2="36.326" xlink:href="#linear-gradient"/>
    <linearGradient id="linear-gradient-10" x1="0.314" y1="-8.003" x2="0.726" y2="10.852" xlink:href="#linear-gradient"/>
    <linearGradient id="linear-gradient-11" x1="0.477" y1="-0.479" x2="0.532" y2="2.035" xlink:href="#linear-gradient"/>
    <linearGradient id="linear-gradient-12" x1="0.417" y1="-3.279" x2="0.6" y2="5.101" xlink:href="#linear-gradient"/>
    <linearGradient id="linear-gradient-13" x1="0.308" y1="-3.896" x2="0.857" y2="8.675" xlink:href="#linear-gradient"/>
    <linearGradient id="linear-gradient-14" x1="0.006" y1="-22.103" x2="1.653" y2="53.318" xlink:href="#linear-gradient"/>
    <linearGradient id="linear-gradient-15" x1="-0.005" y1="-22.649" x2="1.641" y2="52.773" xlink:href="#linear-gradient"/>
    <linearGradient id="linear-gradient-16" x1="-0.071" y1="-25.648" x2="1.576" y2="49.774" xlink:href="#linear-gradient"/>
    <linearGradient id="linear-gradient-17" x1="-0.059" y1="-25.102" x2="1.588" y2="50.32" xlink:href="#linear-gradient"/>
    <linearGradient id="linear-gradient-18" x1="0.351" y1="-13.152" x2="0.625" y2="11.989" xlink:href="#linear-gradient"/>
  </defs>
  <path id="Caminho_80" data-name="Caminho 80" d="M-1637.584,327.533h3.737v22.42h-3.737Z" transform="translate(1682.423 -252.801)" fill="url(#linear-gradient)"/>
  <path id="Caminho_81" data-name="Caminho 81" d="M-1669.584,343.533h3.737v18.683h-3.737Z" transform="translate(1706.95 -265.065)" fill="url(#linear-gradient-2)"/>
  <path id="Caminho_82" data-name="Caminho 82" d="M-1701.584,359.533h3.736v14.946h-3.736Z" transform="translate(1731.477 -277.328)" fill="url(#linear-gradient-3)"/>
  <path id="Caminho_83" data-name="Caminho 83" d="M-1733.584,375.533h3.737v11.21h-3.737Z" transform="translate(1756.004 -289.591)" fill="url(#linear-gradient-4)"/>
  <path id="Caminho_84" data-name="Caminho 84" d="M-1765.584,391.533h3.737v7.473h-3.737Z" transform="translate(1780.531 -301.855)" fill="url(#linear-gradient-5)"/>
  <path id="Caminho_85" data-name="Caminho 85" d="M-1762.6,299.944h-5.164a1.869,1.869,0,0,0-1.321.547l-5.057,5.057h-6.7a1.868,1.868,0,0,0-1.554.831l-3.182,4.773h-2.737a1.869,1.869,0,0,0-1.321.547l-5.6,5.6,2.642,2.642,5.057-5.057h2.963a1.868,1.868,0,0,0,1.554-.831l3.182-4.773h6.473a1.867,1.867,0,0,0,1.321-.547l5.057-5.057h4.831a1.867,1.867,0,0,0,.835-.187l7.473-3.737-1.67-3.344Z" transform="translate(1803.261 -228.949)" fill="url(#linear-gradient-6)"/>
  <path id="Caminho_86" data-name="Caminho 86" d="M-1797.584,303.533h13.078v3.737h-13.078Z" transform="translate(1805.057 -234.406)" fill="url(#linear-gradient-7)"/>
  <path id="Caminho_87" data-name="Caminho 87" d="M-1797.584,327.533h7.473v3.737h-7.473Z" transform="translate(1805.057 -252.801)" fill="url(#linear-gradient-8)"/>
  <path id="Caminho_88" data-name="Caminho 88" d="M-1797.584,407.533h3.737v3.737h-3.737Z" transform="translate(1805.057 -314.118)" fill="url(#linear-gradient-9)"/>
  <path id="Caminho_89" data-name="Caminho 89" d="M-1510.111,302.479a7.473,7.473,0,0,0,7.473-7.473,7.473,7.473,0,0,0-7.473-7.473,7.473,7.473,0,0,0-7.473,7.473A7.473,7.473,0,0,0-1510.111,302.479Zm0-11.21a3.736,3.736,0,0,1,3.737,3.737,3.736,3.736,0,0,1-3.737,3.737,3.737,3.737,0,0,1-3.737-3.737A3.737,3.737,0,0,1-1510.111,291.27Z" transform="translate(1590.447 -222.143)" fill="url(#linear-gradient-10)"/>
  <path id="Caminho_90" data-name="Caminho 90" d="M-1719.354,29.953h-28.024V16.874a9.341,9.341,0,0,0-9.342-9.341h-33.629a9.342,9.342,0,0,0-9.341,9.341V29.953h-28.024a1.868,1.868,0,0,0-1.868,1.868V57.977a1.868,1.868,0,0,0,1.868,1.868h5.6v11.21h-5.6a1.868,1.868,0,0,0-1.868,1.868v37.366a1.868,1.868,0,0,0,1.868,1.868h5.6v5.6a1.868,1.868,0,0,0,1.868,1.868h93.415a1.868,1.868,0,0,0,1.868-1.868V59.845h5.6a1.868,1.868,0,0,0,1.868-1.868V31.821A1.868,1.868,0,0,0-1719.354,29.953Zm-76.6-13.078a5.622,5.622,0,0,1,5.6-5.6h33.629a5.622,5.622,0,0,1,5.6,5.6V29.953h-3.737V20.611a5.621,5.621,0,0,0-5.6-5.6h-26.156a5.622,5.622,0,0,0-5.6,5.6v9.341h-3.737Zm37.366,3.737v9.341h-29.893V20.611a1.868,1.868,0,0,1,1.868-1.868h26.156A1.868,1.868,0,0,1-1758.589,20.611Zm-67.259,87.81V74.792h48.576v33.629Zm97.151,7.473h-89.678v-3.737h42.971a1.868,1.868,0,0,0,1.868-1.868V72.923a1.868,1.868,0,0,0-1.868-1.868h-42.971V59.845h29.8a16.778,16.778,0,0,0,22.475,7.6,16.778,16.778,0,0,0,7.6-7.6h29.8Zm-57.917-63.522a13.078,13.078,0,0,1,13.078-13.078,13.078,13.078,0,0,1,13.078,13.078,13.078,13.078,0,0,1-13.078,13.078A13.093,13.093,0,0,1-1786.613,52.372Zm65.391,3.737h-35.927a16.358,16.358,0,0,0,.43-3.737,16.815,16.815,0,0,0-16.815-16.815,16.815,16.815,0,0,0-16.815,16.815,16.385,16.385,0,0,0,.43,3.737h-35.927V33.689h104.625Z" transform="translate(1829.584 -7.533)" fill="url(#linear-gradient-11)"/>
  <path id="Caminho_91" data-name="Caminho 91" d="M-1525.375,258.8l-1.252-.318.672-1.1a1.868,1.868,0,0,0-.28-2.279l-5.287-5.287a1.891,1.891,0,0,0-2.279-.28l-1.1.673-.318-1.252a1.868,1.868,0,0,0-1.812-1.42h-7.473a1.868,1.868,0,0,0-1.812,1.42l-.318,1.252-1.1-.673a1.9,1.9,0,0,0-2.279.28l-5.287,5.287a1.869,1.869,0,0,0-.28,2.279l.673,1.1-1.252.318a1.868,1.868,0,0,0-1.42,1.812v7.473a1.868,1.868,0,0,0,1.42,1.812l1.252.318-.673,1.1a1.869,1.869,0,0,0,.28,2.279l5.287,5.287a1.891,1.891,0,0,0,2.279.28l1.1-.673.318,1.252a1.868,1.868,0,0,0,1.812,1.42h7.473a1.868,1.868,0,0,0,1.812-1.42l.318-1.252,1.1.673a1.9,1.9,0,0,0,2.279-.28l5.287-5.287a1.868,1.868,0,0,0,.28-2.279l-.672-1.1,1.252-.318a1.868,1.868,0,0,0,1.42-1.812v-7.473a1.868,1.868,0,0,0-1.42-1.812Zm-2.317,7.828-2.279.56a1.882,1.882,0,0,0-1.271,1.1,1.9,1.9,0,0,0,.112,1.681l1.214,2.018-3.213,3.213-2.018-1.214a1.9,1.9,0,0,0-1.681-.112,1.881,1.881,0,0,0-1.1,1.27l-.561,2.279h-4.559l-.56-2.279a1.881,1.881,0,0,0-1.1-1.27,1.9,1.9,0,0,0-1.681.112l-2.018,1.214-3.214-3.213,1.214-2.018a1.9,1.9,0,0,0,.112-1.681,1.882,1.882,0,0,0-1.27-1.1l-2.279-.56v-4.559l2.279-.561a1.882,1.882,0,0,0,1.27-1.1,1.9,1.9,0,0,0-.112-1.681l-1.214-2.018,3.214-3.213,2.018,1.2a1.848,1.848,0,0,0,1.681.131,1.881,1.881,0,0,0,1.1-1.27l.56-2.279h4.559l.561,2.279a1.881,1.881,0,0,0,1.1,1.27,1.848,1.848,0,0,0,1.681-.131l2.018-1.2,3.213,3.213-1.214,2.018a1.9,1.9,0,0,0-.112,1.681,1.882,1.882,0,0,0,1.271,1.1l2.279.561Z" transform="translate(1621.106 -191.484)" fill="url(#linear-gradient-12)"/>
  <path id="Caminho_92" data-name="Caminho 92" d="M-1609.847,173.953h3.737v-1.868a3.736,3.736,0,0,0,3.736-3.737v-3.737a3.736,3.736,0,0,0-3.736-3.737h-3.737v-3.737h7.473V153.4h-3.736v-1.868h-3.737V153.4a3.737,3.737,0,0,0-3.737,3.737v3.737a3.737,3.737,0,0,0,3.737,3.737h3.737v3.737h-7.473v3.737h3.737Z" transform="translate(1664.028 -117.904)" fill="url(#linear-gradient-13)"/>
  <path id="Caminho_93" data-name="Caminho 93" d="M-1797.584,135.533h3.737v3.737h-3.737Z" transform="translate(1805.057 -105.64)" fill="url(#linear-gradient-14)"/>
  <path id="Caminho_94" data-name="Caminho 94" d="M-1397.584,135.533h3.737v3.737h-3.737Z" transform="translate(1498.472 -105.64)" fill="url(#linear-gradient-15)"/>
  <path id="Caminho_95" data-name="Caminho 95" d="M-1397.584,183.533h3.737v3.737h-3.737Z" transform="translate(1498.472 -142.431)" fill="url(#linear-gradient-16)"/>
  <path id="Caminho_96" data-name="Caminho 96" d="M-1797.584,183.533h3.737v3.737h-3.737Z" transform="translate(1805.057 -142.431)" fill="url(#linear-gradient-17)"/>
  <path id="Caminho_97" data-name="Caminho 97" d="M-1554.9,415.006h-18.683v3.737h20.551a1.868,1.868,0,0,0,1.868-1.868v-9.341h-3.737Z" transform="translate(1633.369 -314.118)" fill="url(#linear-gradient-18)"/>
</svg>
